<?xml version="1.0" standalone="no"?>
<!DOCTYPE svg PUBLIC "-//W3C//DTD SVG 20010904//EN"
 "http://www.w3.org/TR/2001/REC-SVG-20010904/DTD/svg10.dtd">
<svg version="1.0" xmlns="http://www.w3.org/2000/svg"
 width="512.000000pt" height="512.000000pt" viewBox="0 0 512.000000 512.000000"
 preserveAspectRatio="xMidYMid meet">
<metadata>
Created by potrace 1.11, written by Peter Selinger 2001-2013
</metadata>
<g transform="translate(0.000000,512.000000) scale(0.100000,-0.100000)"
fill="#000000" stroke="none">
<path d="M0 2560 l0 -2560 2560 0 2560 0 0 2560 0 2560 -2560 0 -2560 0 0
-2560z m1020 310 l0 -60 -80 0 -80 0 0 -310 0 -310 -70 0 -70 0 0 310 0 310
-80 0 -80 0 0 60 0 60 230 0 230 0 0 -60z m1158 -307 l-3 -368 -57 -3 c-53 -3
-58 -1 -58 17 l0 21 -32 -20 c-114 -70 -248 57 -248 234 0 104 45 197 112 232
31 16 104 16 141 0 16 -8 17 2 17 123 l0 131 65 0 65 0 -2 -367z m2262 173 l0
-45 48 -3 47 -3 3 -52 3 -53 -50 0 -51 0 0 -118 c0 -143 7 -158 68 -149 l42 5
0 -54 c0 -49 -2 -55 -26 -64 -38 -15 -111 -12 -145 6 -49 25 -62 70 -67 232
-5 142 -5 142 -28 142 -22 0 -24 4 -24 55 0 52 1 55 25 55 23 0 25 4 25 45 l0
45 65 0 65 0 0 -44z m-3270 -63 c0 -15 1 -15 18 0 11 10 36 17 60 17 l42 0 0
-65 c0 -36 -2 -65 -4 -65 -3 0 -15 4 -29 9 -17 7 -33 5 -56 -6 l-32 -16 2
-176 1 -176 -61 -3 -61 -3 0 251 0 250 60 0 c49 0 60 -3 60 -17z m467 -9 c53
-39 58 -62 61 -276 l3 -198 -56 0 c-40 0 -57 4 -61 15 -5 13 -9 13 -34 0 -16
-8 -51 -15 -78 -15 -84 0 -132 56 -132 153 0 40 6 63 23 87 38 57 70 74 147
78 39 2 70 9 70 14 0 48 -62 68 -139 45 l-51 -15 0 59 c0 56 1 59 28 65 15 3
32 7 37 10 6 2 42 2 82 1 55 -2 79 -7 100 -23z m880 15 c73 -27 112 -99 113
-206 l0 -73 -121 0 -121 0 7 -27 c18 -74 87 -90 193 -47 9 4 12 -10 12 -54 0
-58 -1 -60 -31 -71 -44 -15 -143 -14 -182 3 -78 33 -128 118 -130 224 -3 118
43 216 117 248 38 16 105 18 143 3z m323 -4 c0 -18 1 -18 36 0 40 20 93 19
131 -4 31 -19 32 -19 69 0 86 43 176 15 224 -71 24 -43 25 -55 28 -227 l4
-183 -66 0 -65 0 6 123 c9 203 -17 275 -93 250 l-27 -9 2 -182 2 -182 -65 0
-66 0 0 170 c0 157 -2 172 -20 190 -23 23 -30 24 -64 8 l-26 -11 -2 -176 -3
-176 -62 -3 -63 -3 0 251 0 250 60 0 c47 0 60 -3 60 -15z m858 -14 c52 -36 76
-93 76 -181 l1 -75 -122 -5 -123 -5 18 -35 c30 -61 97 -73 185 -35 15 6 17 0
17 -53 0 -58 -1 -60 -31 -71 -53 -18 -155 -14 -199 9 -154 78 -162 379 -12
460 51 28 145 24 190 -9z m415 15 c71 -29 107 -101 107 -213 l0 -63 -120 0
c-110 0 -120 -1 -120 -19 0 -30 38 -70 74 -76 30 -6 72 1 119 20 15 6 17 0 17
-53 l0 -60 -36 -12 c-60 -20 -164 -9 -212 22 -61 41 -96 121 -97 218 0 41 6
92 14 113 16 48 66 106 106 123 39 17 107 17 148 0z"/>
<path d="M1962 2569 c-69 -26 -68 -218 1 -250 19 -9 31 -7 56 5 l32 17 -3 106
-3 107 -30 12 c-19 7 -38 8 -53 3z"/>
<path d="M1505 2403 c-46 -11 -61 -56 -29 -87 22 -23 51 -20 79 9 32 31 33 71
3 79 -13 3 -25 5 -28 5 -3 -1 -14 -4 -25 -6z"/>
<path d="M2407 2562 c-34 -38 -22 -52 43 -52 64 0 72 9 50 51 -14 25 -71 26
-93 1z"/>
<path d="M3552 2568 c-5 -7 -13 -23 -16 -35 -7 -22 -5 -23 58 -23 71 0 79 7
50 48 -17 25 -74 31 -92 10z"/>
<path d="M3990 2561 c-22 -42 -14 -51 50 -51 64 0 72 9 50 51 -8 14 -21 19
-50 19 -29 0 -42 -5 -50 -19z"/>
</g>
</svg>
